<mxfile host="app.diagrams.net" modified="2024-05-08T04:39:09.819Z" agent="Mozilla/5.0 (Windows NT 10.0; Win64; x64) AppleWebKit/537.36 (KHTML, like Gecko) Chrome/124.0.0.0 Safari/537.36 Edg/124.0.0.0" etag="S8jipoKXqArX6RJ1ZMsm" version="24.3.1" type="github">
  <diagram name="Page-1" id="v34sxde32LLmP048Y4tt">
    <mxGraphModel dx="786" dy="459" grid="1" gridSize="10" guides="1" tooltips="1" connect="1" arrows="1" fold="1" page="1" pageScale="1" pageWidth="850" pageHeight="1100" math="0" shadow="0">
      <root>
        <mxCell id="0" />
        <mxCell id="1" parent="0" />
        <mxCell id="yCkPDZTaultlRP4T32ps-1" value="" style="sketch=0;points=[[0,0,0],[0.25,0,0],[0.5,0,0],[0.75,0,0],[1,0,0],[0,1,0],[0.25,1,0],[0.5,1,0],[0.75,1,0],[1,1,0],[0,0.25,0],[0,0.5,0],[0,0.75,0],[1,0.25,0],[1,0.5,0],[1,0.75,0]];outlineConnect=0;fontColor=#232F3E;fillColor=#7AA116;strokeColor=#ffffff;dashed=0;verticalLabelPosition=bottom;verticalAlign=top;align=center;html=1;fontSize=12;fontStyle=0;aspect=fixed;shape=mxgraph.aws4.resourceIcon;resIcon=mxgraph.aws4.s3;" vertex="1" parent="1">
          <mxGeometry x="570" y="360" width="78" height="78" as="geometry" />
        </mxCell>
        <mxCell id="yCkPDZTaultlRP4T32ps-2" value="S3" style="text;html=1;align=center;verticalAlign=middle;resizable=0;points=[];autosize=1;strokeColor=none;fillColor=none;" vertex="1" parent="1">
          <mxGeometry x="599" y="348" width="40" height="30" as="geometry" />
        </mxCell>
        <mxCell id="yCkPDZTaultlRP4T32ps-6" value="" style="rounded=1;whiteSpace=wrap;html=1;" vertex="1" parent="1">
          <mxGeometry x="529.5" y="130" width="170.5" height="160" as="geometry" />
        </mxCell>
        <mxCell id="yCkPDZTaultlRP4T32ps-3" value="" style="sketch=0;points=[[0,0,0],[0.25,0,0],[0.5,0,0],[0.75,0,0],[1,0,0],[0,1,0],[0.25,1,0],[0.5,1,0],[0.75,1,0],[1,1,0],[0,0.25,0],[0,0.5,0],[0,0.75,0],[1,0.25,0],[1,0.5,0],[1,0.75,0]];outlineConnect=0;fontColor=#232F3E;fillColor=#8C4FFF;strokeColor=#ffffff;dashed=0;verticalLabelPosition=bottom;verticalAlign=top;align=center;html=1;fontSize=12;fontStyle=0;aspect=fixed;shape=mxgraph.aws4.resourceIcon;resIcon=mxgraph.aws4.cloudfront;" vertex="1" parent="1">
          <mxGeometry x="570" y="90" width="78" height="78" as="geometry" />
        </mxCell>
        <mxCell id="yCkPDZTaultlRP4T32ps-4" value="Edge location" style="sketch=0;outlineConnect=0;fontColor=#232F3E;gradientColor=none;strokeColor=#232F3E;fillColor=#ffffff;dashed=0;verticalLabelPosition=bottom;verticalAlign=top;align=center;html=1;fontSize=12;fontStyle=0;aspect=fixed;shape=mxgraph.aws4.resourceIcon;resIcon=mxgraph.aws4.edge_location;" vertex="1" parent="1">
          <mxGeometry x="540" y="200" width="60" height="60" as="geometry" />
        </mxCell>
        <mxCell id="yCkPDZTaultlRP4T32ps-5" value="Edge location" style="sketch=0;outlineConnect=0;fontColor=#232F3E;gradientColor=none;strokeColor=#232F3E;fillColor=#ffffff;dashed=0;verticalLabelPosition=bottom;verticalAlign=top;align=center;html=1;fontSize=12;fontStyle=0;aspect=fixed;shape=mxgraph.aws4.resourceIcon;resIcon=mxgraph.aws4.edge_location;" vertex="1" parent="1">
          <mxGeometry x="620" y="200" width="60" height="60" as="geometry" />
        </mxCell>
        <mxCell id="yCkPDZTaultlRP4T32ps-7" value="" style="sketch=0;points=[[0,0,0],[0.25,0,0],[0.5,0,0],[0.75,0,0],[1,0,0],[0,1,0],[0.25,1,0],[0.5,1,0],[0.75,1,0],[1,1,0],[0,0.25,0],[0,0.5,0],[0,0.75,0],[1,0.25,0],[1,0.5,0],[1,0.75,0]];outlineConnect=0;fontColor=#232F3E;fillColor=#ED7100;strokeColor=#ffffff;dashed=0;verticalLabelPosition=bottom;verticalAlign=top;align=center;html=1;fontSize=12;fontStyle=0;aspect=fixed;shape=mxgraph.aws4.resourceIcon;resIcon=mxgraph.aws4.ec2;" vertex="1" parent="1">
          <mxGeometry x="330" y="360" width="78" height="78" as="geometry" />
        </mxCell>
        <mxCell id="yCkPDZTaultlRP4T32ps-8" value="Application Server" style="text;html=1;align=center;verticalAlign=middle;resizable=0;points=[];autosize=1;strokeColor=none;fillColor=none;" vertex="1" parent="1">
          <mxGeometry x="309" y="458" width="120" height="30" as="geometry" />
        </mxCell>
        <mxCell id="yCkPDZTaultlRP4T32ps-9" value="S3" style="text;html=1;align=center;verticalAlign=middle;resizable=0;points=[];autosize=1;strokeColor=none;fillColor=none;" vertex="1" parent="1">
          <mxGeometry x="580" y="450" width="40" height="30" as="geometry" />
        </mxCell>
        <mxCell id="yCkPDZTaultlRP4T32ps-10" value="" style="sketch=0;outlineConnect=0;fontColor=#232F3E;gradientColor=none;fillColor=#232F3D;strokeColor=none;dashed=0;verticalLabelPosition=bottom;verticalAlign=top;align=center;html=1;fontSize=12;fontStyle=0;aspect=fixed;pointerEvents=1;shape=mxgraph.aws4.client;" vertex="1" parent="1">
          <mxGeometry x="330" y="130" width="78" height="76" as="geometry" />
        </mxCell>
        <mxCell id="yCkPDZTaultlRP4T32ps-11" value="Client" style="text;html=1;align=center;verticalAlign=middle;resizable=0;points=[];autosize=1;strokeColor=none;fillColor=none;" vertex="1" parent="1">
          <mxGeometry x="335" y="208" width="50" height="30" as="geometry" />
        </mxCell>
        <mxCell id="yCkPDZTaultlRP4T32ps-12" value="" style="endArrow=classic;html=1;rounded=0;entryX=0;entryY=0;entryDx=0;entryDy=0;entryPerimeter=0;" edge="1" parent="1" target="yCkPDZTaultlRP4T32ps-7">
          <mxGeometry width="50" height="50" relative="1" as="geometry">
            <mxPoint x="330" y="220" as="sourcePoint" />
            <mxPoint x="390" y="270" as="targetPoint" />
          </mxGeometry>
        </mxCell>
        <mxCell id="yCkPDZTaultlRP4T32ps-13" value="" style="endArrow=classic;html=1;rounded=0;entryX=1.113;entryY=0.156;entryDx=0;entryDy=0;entryPerimeter=0;" edge="1" parent="1" target="yCkPDZTaultlRP4T32ps-11">
          <mxGeometry width="50" height="50" relative="1" as="geometry">
            <mxPoint x="390" y="360" as="sourcePoint" />
            <mxPoint x="440" y="310" as="targetPoint" />
          </mxGeometry>
        </mxCell>
        <mxCell id="yCkPDZTaultlRP4T32ps-14" value="Authentication &amp;amp;&amp;nbsp;&lt;div&gt;Authorization&lt;/div&gt;" style="text;html=1;align=center;verticalAlign=middle;resizable=0;points=[];autosize=1;strokeColor=none;fillColor=none;" vertex="1" parent="1">
          <mxGeometry x="225" y="243" width="110" height="40" as="geometry" />
        </mxCell>
        <mxCell id="yCkPDZTaultlRP4T32ps-15" value="1" style="text;html=1;align=center;verticalAlign=middle;resizable=0;points=[];autosize=1;strokeColor=none;fillColor=none;" vertex="1" parent="1">
          <mxGeometry x="295" y="298" width="30" height="30" as="geometry" />
        </mxCell>
        <mxCell id="yCkPDZTaultlRP4T32ps-17" value="" style="endArrow=classic;startArrow=classic;html=1;rounded=0;entryX=0.022;entryY=0.95;entryDx=0;entryDy=0;entryPerimeter=0;" edge="1" parent="1" target="yCkPDZTaultlRP4T32ps-6">
          <mxGeometry width="50" height="50" relative="1" as="geometry">
            <mxPoint x="408" y="398" as="sourcePoint" />
            <mxPoint x="458" y="348" as="targetPoint" />
          </mxGeometry>
        </mxCell>
        <mxCell id="yCkPDZTaultlRP4T32ps-18" value="Generate Signed URL" style="text;html=1;align=center;verticalAlign=middle;resizable=0;points=[];autosize=1;strokeColor=none;fillColor=none;rotation=-45;" vertex="1" parent="1">
          <mxGeometry x="410" y="348" width="140" height="30" as="geometry" />
        </mxCell>
        <mxCell id="yCkPDZTaultlRP4T32ps-19" value="2" style="text;html=1;align=center;verticalAlign=middle;resizable=0;points=[];autosize=1;strokeColor=none;fillColor=none;" vertex="1" parent="1">
          <mxGeometry x="415" y="338" width="30" height="30" as="geometry" />
        </mxCell>
        <mxCell id="yCkPDZTaultlRP4T32ps-20" value="Signed URL" style="text;html=1;align=center;verticalAlign=middle;resizable=0;points=[];autosize=1;strokeColor=none;fillColor=none;" vertex="1" parent="1">
          <mxGeometry x="385" y="260" width="90" height="30" as="geometry" />
        </mxCell>
        <mxCell id="yCkPDZTaultlRP4T32ps-21" value="3" style="text;html=1;align=center;verticalAlign=middle;resizable=0;points=[];autosize=1;strokeColor=none;fillColor=none;" vertex="1" parent="1">
          <mxGeometry x="385" y="228" width="30" height="30" as="geometry" />
        </mxCell>
        <mxCell id="yCkPDZTaultlRP4T32ps-22" value="" style="endArrow=classic;startArrow=classic;html=1;rounded=0;" edge="1" parent="1" source="yCkPDZTaultlRP4T32ps-6">
          <mxGeometry width="50" height="50" relative="1" as="geometry">
            <mxPoint x="614.75" y="340" as="sourcePoint" />
            <mxPoint x="614.75" y="360.71067811865476" as="targetPoint" />
          </mxGeometry>
        </mxCell>
        <mxCell id="yCkPDZTaultlRP4T32ps-23" value="OAC" style="text;html=1;align=center;verticalAlign=middle;resizable=0;points=[];autosize=1;strokeColor=none;fillColor=none;" vertex="1" parent="1">
          <mxGeometry x="625" y="318" width="50" height="30" as="geometry" />
        </mxCell>
        <mxCell id="yCkPDZTaultlRP4T32ps-24" value="" style="sketch=0;outlineConnect=0;fontColor=#232F3E;gradientColor=none;fillColor=#DD344C;strokeColor=none;dashed=0;verticalLabelPosition=bottom;verticalAlign=top;align=center;html=1;fontSize=12;fontStyle=0;aspect=fixed;pointerEvents=1;shape=mxgraph.aws4.role;" vertex="1" parent="1">
          <mxGeometry x="634.93" y="301" width="30.14" height="17" as="geometry" />
        </mxCell>
        <mxCell id="yCkPDZTaultlRP4T32ps-26" value="" style="endArrow=classic;html=1;rounded=0;entryX=0;entryY=0.25;entryDx=0;entryDy=0;" edge="1" parent="1" target="yCkPDZTaultlRP4T32ps-6">
          <mxGeometry width="50" height="50" relative="1" as="geometry">
            <mxPoint x="410" y="180" as="sourcePoint" />
            <mxPoint x="460" y="130" as="targetPoint" />
          </mxGeometry>
        </mxCell>
        <mxCell id="yCkPDZTaultlRP4T32ps-27" value="Signed URL" style="text;html=1;align=center;verticalAlign=middle;resizable=0;points=[];autosize=1;strokeColor=none;fillColor=none;" vertex="1" parent="1">
          <mxGeometry x="405" y="138" width="90" height="30" as="geometry" />
        </mxCell>
        <mxCell id="yCkPDZTaultlRP4T32ps-28" value="4" style="text;html=1;align=center;verticalAlign=middle;resizable=0;points=[];autosize=1;strokeColor=none;fillColor=none;" vertex="1" parent="1">
          <mxGeometry x="455" y="178" width="30" height="30" as="geometry" />
        </mxCell>
      </root>
    </mxGraphModel>
  </diagram>
</mxfile>
